<svg width="79" height="12" viewBox="0 0 79 12" fill="none" xmlns="http://www.w3.org/2000/svg">
<path fill-rule="evenodd" clip-rule="evenodd" d="M5.98666 9.42003L2.72666 11.411C2.64538 11.4604 2.55127 11.4845 2.45627 11.4803C2.36126 11.4761 2.26965 11.4438 2.19305 11.3874C2.11645 11.3311 2.05832 11.2532 2.02602 11.1638C1.99373 11.0743 1.98873 10.9773 2.01166 10.885L2.95666 7.12103L0.216656 4.98803C0.14018 4.9289 0.0833418 4.84805 0.0535827 4.75607C0.0238236 4.66409 0.0225303 4.56527 0.0498721 4.47255C0.0772139 4.37982 0.131917 4.29752 0.206819 4.2364C0.28172 4.17529 0.373331 4.13821 0.469656 4.13003L4.05566 3.83503L5.55166 0.34803C5.58867 0.261544 5.65028 0.187841 5.72883 0.136079C5.80738 0.0843173 5.89941 0.0567785 5.99349 0.0568851C6.08756 0.0569916 6.17953 0.0847388 6.25796 0.136679C6.3364 0.188618 6.39784 0.262461 6.43466 0.34903L7.91766 3.83503L11.5277 4.13103C11.6239 4.13907 11.7155 4.17596 11.7904 4.23688C11.8654 4.29779 11.9202 4.3799 11.9477 4.47247C11.9753 4.56504 11.9743 4.66376 11.9448 4.75574C11.9154 4.84772 11.8588 4.92868 11.7827 4.98803L9.03066 7.12103L9.97366 10.887C9.99685 10.9794 9.99205 11.0766 9.95986 11.1662C9.92767 11.2558 9.86956 11.3338 9.7929 11.3903C9.71625 11.4468 9.62452 11.4793 9.52939 11.4835C9.43425 11.4877 9.34001 11.4635 9.25866 11.414L5.98666 9.41903V9.42003Z" fill="#FFBB0E"/>
<path fill-rule="evenodd" clip-rule="evenodd" d="M39.9867 9.42003L36.7267 11.411C36.6454 11.4604 36.5513 11.4845 36.4563 11.4803C36.3613 11.4761 36.2697 11.4438 36.1931 11.3874C36.1165 11.3311 36.0583 11.2532 36.026 11.1638C35.9937 11.0743 35.9887 10.9773 36.0117 10.885L36.9567 7.12103L34.2167 4.98803C34.1402 4.9289 34.0833 4.84805 34.0536 4.75607C34.0238 4.66409 34.0225 4.56527 34.0499 4.47255C34.0772 4.37982 34.1319 4.29752 34.2068 4.2364C34.2817 4.17529 34.3733 4.13821 34.4697 4.13003L38.0557 3.83503L39.5517 0.34803C39.5887 0.261544 39.6503 0.187841 39.7288 0.136079C39.8074 0.0843173 39.8994 0.0567785 39.9935 0.0568851C40.0876 0.0569916 40.1795 0.0847388 40.258 0.136679C40.3364 0.188618 40.3978 0.262461 40.4347 0.34903L41.9177 3.83503L45.5277 4.13103C45.6239 4.13907 45.7155 4.17596 45.7904 4.23688C45.8654 4.29779 45.9202 4.3799 45.9477 4.47247C45.9753 4.56504 45.9743 4.66376 45.9448 4.75574C45.9154 4.84772 45.8588 4.92868 45.7827 4.98803L43.0307 7.12103L43.9737 10.887C43.9968 10.9794 43.992 11.0766 43.9599 11.1662C43.9277 11.2558 43.8696 11.3338 43.7929 11.3903C43.7162 11.4468 43.6245 11.4793 43.5294 11.4835C43.4343 11.4877 43.34 11.4635 43.2587 11.414L39.9867 9.41903V9.42003Z" fill="#FFBB0E"/>
<path fill-rule="evenodd" clip-rule="evenodd" d="M22.9867 9.42003L19.7267 11.411C19.6454 11.4604 19.5513 11.4845 19.4563 11.4803C19.3613 11.4761 19.2697 11.4438 19.1931 11.3874C19.1165 11.3311 19.0583 11.2532 19.026 11.1638C18.9937 11.0743 18.9887 10.9773 19.0117 10.885L19.9567 7.12103L17.2167 4.98803C17.1402 4.9289 17.0833 4.84805 17.0536 4.75607C17.0238 4.66409 17.0225 4.56527 17.0499 4.47255C17.0772 4.37982 17.1319 4.29752 17.2068 4.2364C17.2817 4.17529 17.3733 4.13821 17.4697 4.13003L21.0557 3.83503L22.5517 0.34803C22.5887 0.261544 22.6503 0.187841 22.7288 0.136079C22.8074 0.0843173 22.8994 0.0567785 22.9935 0.0568851C23.0876 0.0569916 23.1795 0.0847388 23.258 0.136679C23.3364 0.188618 23.3978 0.262461 23.4347 0.34903L24.9177 3.83503L28.5277 4.13103C28.6239 4.13907 28.7155 4.17596 28.7904 4.23688C28.8654 4.29779 28.9202 4.3799 28.9477 4.47247C28.9753 4.56504 28.9743 4.66376 28.9448 4.75574C28.9154 4.84772 28.8588 4.92868 28.7827 4.98803L26.0307 7.12103L26.9737 10.887C26.9968 10.9794 26.992 11.0766 26.9599 11.1662C26.9277 11.2558 26.8696 11.3338 26.7929 11.3903C26.7162 11.4468 26.6245 11.4793 26.5294 11.4835C26.4343 11.4877 26.34 11.4635 26.2587 11.414L22.9867 9.41903V9.42003Z" fill="#FFBB0E"/>
<path fill-rule="evenodd" clip-rule="evenodd" d="M56.9867 9.42003L53.7267 11.411C53.6454 11.4604 53.5513 11.4845 53.4563 11.4803C53.3613 11.4761 53.2697 11.4438 53.1931 11.3874C53.1165 11.3311 53.0583 11.2532 53.026 11.1638C52.9937 11.0743 52.9887 10.9773 53.0117 10.885L53.9567 7.12103L51.2167 4.98803C51.1402 4.9289 51.0833 4.84805 51.0536 4.75607C51.0238 4.66409 51.0225 4.56527 51.0499 4.47255C51.0772 4.37982 51.1319 4.29752 51.2068 4.2364C51.2817 4.17529 51.3733 4.13821 51.4697 4.13003L55.0557 3.83503L56.5517 0.34803C56.5887 0.261544 56.6503 0.187841 56.7288 0.136079C56.8074 0.0843173 56.8994 0.0567785 56.9935 0.0568851C57.0876 0.0569916 57.1795 0.0847388 57.258 0.136679C57.3364 0.188618 57.3978 0.262461 57.4347 0.34903L58.9177 3.83503L62.5277 4.13103C62.6239 4.13907 62.7155 4.17596 62.7904 4.23688C62.8654 4.29779 62.9202 4.3799 62.9477 4.47247C62.9753 4.56504 62.9743 4.66376 62.9448 4.75574C62.9154 4.84772 62.8588 4.92868 62.7827 4.98803L60.0307 7.12103L60.9737 10.887C60.9968 10.9794 60.992 11.0766 60.9599 11.1662C60.9277 11.2558 60.8696 11.3338 60.7929 11.3903C60.7162 11.4468 60.6245 11.4793 60.5294 11.4835C60.4343 11.4877 60.34 11.4635 60.2587 11.414L56.9867 9.41903V9.42003Z" fill="#FFBB0E"/>
<path fill-rule="evenodd" clip-rule="evenodd" d="M72.9564 9.36315L69.6964 11.3541C69.6151 11.4035 69.521 11.4276 69.426 11.4234C69.331 11.4192 69.2394 11.3869 69.1628 11.3305C69.0862 11.2742 69.028 11.1963 68.9958 11.1069C68.9635 11.0175 68.9585 10.9204 68.9814 10.8281L69.9264 7.06415L67.1864 4.93115C67.1099 4.87201 67.0531 4.79116 67.0233 4.69919C66.9936 4.60721 66.9923 4.50839 67.0196 4.41566C67.0469 4.32294 67.1016 4.24063 67.1765 4.17952C67.2514 4.1184 67.3431 4.08133 67.4394 4.07315L71.0254 3.77815L72.5214 0.291145C72.5584 0.20466 72.62 0.130957 72.6986 0.0791945C72.7771 0.0274325 72.8691 -0.00010623 72.9632 3.07951e-07C73.0573 0.000106846 73.1493 0.027854 73.2277 0.0797938C73.3061 0.131734 73.3676 0.205576 73.4044 0.292145L74.8874 3.77815L78.4974 4.07415C78.5936 4.08219 78.6852 4.11908 78.7602 4.17999C78.8351 4.24091 78.8899 4.32302 78.9175 4.41559C78.945 4.50815 78.944 4.60688 78.9145 4.69886C78.8851 4.79084 78.8286 4.87179 78.7524 4.93115L76.0004 7.06415L76.9434 10.8301C76.9666 10.9225 76.9618 11.0197 76.9296 11.1093C76.8974 11.1989 76.8393 11.2769 76.7626 11.3334C76.686 11.3899 76.5942 11.4224 76.4991 11.4266C76.404 11.4308 76.3097 11.4066 76.2284 11.3571L72.9564 9.36215V9.36315Z" fill="#FFBB0E"/>
</svg>
