<svg width="30" height="30" viewBox="0 0 30 30" fill="none" xmlns="http://www.w3.org/2000/svg">
<path d="M26.25 28.75C24.9625 28.75 23.675 28.4375 22.5 27.8125C20.1375 29.0625 17.3625 29.0625 15 27.8125C12.6375 29.0625 9.8625 29.0625 7.5 27.8125C6.3125 28.4375 5.0375 28.75 3.75 28.75H2.5V26.25H3.75C5.05 26.25 6.35 25.8125 7.5 25C9.7875 26.625 12.7125 26.625 15 25C17.2875 26.625 20.2125 26.625 22.5 25C23.6375 25.8125 24.95 26.25 26.25 26.25H27.5V28.75H26.25ZM21.25 1.875C19.875 1.875 18.75 3 18.75 4.375C18.75 5.75 19.875 6.875 21.25 6.875C22.625 6.875 23.75 5.75 23.75 4.375C23.75 3 22.625 1.875 21.25 1.875ZM18.0375 10.6L15.225 12.5L20 16.25V21.05C20.6625 21.525 21.2875 22.025 21.8625 22.5125C21.0125 23.2375 19.925 23.75 18.75 23.75C17.25 23.75 15.9125 22.925 15 21.875C14.0875 22.925 12.75 23.75 11.25 23.75C10.8375 23.75 10.4375 23.6875 10.05 23.575C6.4875 21.125 3.75 18.4 3.75 16.6C3.75 15.3125 5.0125 15 6.0625 15C7.2875 15 8.9125 15.3875 10.6875 16.0375L10.025 12.1625C9.8875 11.325 10.25 10.4375 11 9.925L13.6875 8.1125L11.1875 7.65L7.6625 10.0625L6.25 8L10.625 5L17.5625 6.2875C18.125 6.4 18.725 6.75 19.0875 7.4L20.1875 9.3375C20.7341 10.2977 21.525 11.096 22.4801 11.6515C23.4351 12.2069 24.5202 12.4997 25.625 12.5V15C24.0852 14.9979 22.5731 14.5901 21.2411 13.8177C19.9091 13.0452 18.8041 11.9354 18.0375 10.6ZM12.875 13.875L13.425 17.1875C14.575 17.7125 16.525 18.775 17.5 19.375V17.5L12.875 13.875Z" fill="black"/>
</svg>
