<svg width="138" height="64" viewBox="0 0 138 64" fill="none" xmlns="http://www.w3.org/2000/svg">
<g clip-path="url(#clip0_43_6)">
<path fill-rule="evenodd" clip-rule="evenodd" d="M24.6212 9.0534C32.3765 9.12304 31.3223 16.3657 29.5906 21.0316C39.3788 18.5942 43.0682 24.8619 42.9929 32.4527C42.9176 39.1383 38.8518 47.0077 33.5059 53.2754C30.3435 57.036 26.7294 60.2395 23.1906 62.2591C16.8659 65.95 8.65882 63.3037 6.17412 56.9664C3.31294 49.5844 9.48706 39.974 16.7906 36.9794C27.3318 32.592 30.7953 43.2471 25.6753 44.7792C25.2235 41.6454 21.0071 41.2971 18.5224 42.4114C15.8118 43.5953 13.2518 46.3113 11.9718 48.9576C8.28235 56.5485 14.6824 63.1644 22.2871 57.1056C28.0094 52.579 32.7529 47.0077 36.0659 40.8097C37.6471 37.8151 39.68 31.3385 38.1741 27.9957C35.6894 22.3548 27.1812 25.9065 23.7929 28.2743C23.4165 27.9957 23.04 27.7868 22.7388 27.5082C23.8682 25.7672 25.8259 22.2852 26.6541 19.0121C27.2565 16.8532 27.7835 11.5605 23.4165 12.7444C22.5129 15.7389 21.4588 18.6638 20.4047 21.0316C18.5976 25.5583 11.3694 38.0937 7.30353 41.0882C5.64706 42.2721 3.23765 41.5757 1.88235 40.3918C0.451765 39.0686 0 37.3973 0 35.5866C0.225882 25.9761 11.8965 13.4408 21.0071 9.88909C21.8353 6.96418 22.8141 3.27321 22.8894 0.348287C25.2235 0.278646 25.6753 1.18398 25.9012 2.08931C26.2024 3.27321 24.9976 7.66058 24.6212 9.0534ZM118.362 34.8902C117.986 34.1241 117.986 32.9402 118.136 31.5474C119.115 30.5724 120.32 29.4582 121.449 28.8314C122.654 28.135 124.311 27.9957 124.085 29.5975C123.934 30.851 123.633 32.3831 123.332 33.7063C122.88 35.9348 122.278 38.3722 123.031 40.4615C123.558 41.9936 124.687 42.8989 125.741 43.1775C127.925 43.8042 130.334 42.481 131.991 40.2525C134.701 36.8401 136.132 31.4081 135.605 29.1796C134.927 26.5333 133.346 26.2547 130.711 27.5082C132.819 27.7172 131.087 36.7008 129.129 38.7204C127.624 40.2525 125.816 39.8347 126.494 35.3777C126.569 34.6116 126.871 33.2884 127.096 31.9653C127.473 30.0153 128.151 27.6475 126.419 26.1154C123.558 23.6084 120.847 25.8369 118.739 28.2047C121.6 23.1209 127.096 12.048 130.861 8.00879C131.765 7.03382 132.367 6.40705 132.969 6.47669C133.421 6.54633 133.346 7.5213 133.045 8.56592C132.668 10.1677 130.711 17.48 128.753 16.1568C128.075 18.5942 131.464 20.2656 133.045 18.5942C133.948 17.6192 134.475 16.1568 134.927 15.1122C135.906 12.4658 136.659 9.40161 136.885 8.21771C137.261 6.19812 137.412 4.24818 136.885 3.13392C135.981 1.53218 133.572 1.81075 132.292 2.78572C128.226 5.91956 123.708 13.5801 120.245 20.2656C120.169 18.0371 118.889 17.4103 115.351 18.1764C115.878 18.6638 115.802 20.4049 115.501 22.4941C115.2 24.444 114.673 26.1851 114.221 27.8564C112.489 29.5975 109.854 31.7563 108.875 31.1992C106.842 29.876 114.899 17.6192 105.111 19.221C105.788 20.6834 105.261 24.2351 104.584 27.5082C104.433 28.2047 104.282 28.8314 104.132 29.4582C102.4 31.1296 100.066 32.9402 99.1623 32.3831C97.1294 31.0599 105.186 18.8031 95.3976 20.4049C96.0753 21.8673 95.5482 25.419 94.8706 28.6921C94.72 29.2493 94.6447 29.8064 94.4941 30.3635C92.7623 32.1045 90.2023 34.1241 89.2988 33.567C87.2659 32.2438 95.3223 19.987 85.5341 21.5888C86.1365 22.9119 85.76 25.9761 85.1576 29.0403C83.6518 29.8064 81.92 30.2939 80.4894 30.085C80.7153 29.2493 80.8659 28.4832 81.0165 27.8564C81.92 23.2601 81.3176 21.7281 76.4988 22.7727C77.0259 23.2601 76.9506 25.0012 76.6494 27.0904C76.1223 30.4332 75.0682 33.1492 74.6165 36.1437C74.0141 40.1133 75.8965 41.4364 79.5859 39.4865C78.9082 38.024 79.36 35.1687 79.9623 32.5224C81.5435 32.7313 83.0494 32.3135 84.5553 31.6171C84.2541 32.6617 84.0282 33.6366 83.9529 34.6116C83.5765 39.2079 86.0612 40.6704 90.2776 37.5365C91.4823 36.6312 92.6871 35.4473 93.8165 34.4027C93.8165 38.3026 96.2259 39.3472 100.141 36.4223C101.271 35.5866 102.475 34.4723 103.529 33.4277C103.605 37.1883 106.014 38.1633 109.854 35.2384C111.059 34.3331 112.264 33.2188 113.318 32.1045C112.941 35.5866 114.748 36.7705 118.362 34.8902ZM44.4235 55.0164C49.92 52.0915 77.1765 44.3613 95.8494 42.7596C100.442 42.3418 114.447 39.9043 111.661 47.913C106.767 44.9881 62.0424 50.4201 44.4235 55.0164ZM66.1082 28.9011C65.1294 30.7117 64.4518 33.2188 64.5271 34.8902C64.6023 36.2134 65.2047 37.3973 66.4847 37.1883C68.5929 36.8401 70.2494 31.9653 70.8518 30.0153C70.5506 27.8564 68.4423 24.5833 66.1082 28.9011ZM71.3788 27.5779C70.4753 21.937 65.5812 22.703 62.6447 26.8815C61.8918 27.9957 61.2141 29.3885 60.6871 30.7814C59.7835 31.5474 58.88 32.1742 57.7506 32.592C58.2776 30.7117 58.5788 27.6475 57.2988 25.9761C56.3953 24.7922 54.8894 24.3048 53.3835 24.5137C50.7482 24.8619 49.1671 27.369 49.3929 29.8064C45.7788 27.4386 43.8212 33.0795 43.6706 35.517C43.4447 38.8597 44.4988 42.69 47.5859 43.5257C52.2541 44.7096 56.2447 38.3026 57.1482 34.8902C58.1271 34.6813 59.1059 34.2634 59.9341 33.7063C59.8588 34.3331 59.7835 34.9598 59.7835 35.5866C59.8588 37.8151 60.5365 40.1133 62.4941 41.0882C64.3765 41.9936 66.8612 41.5757 68.8188 39.4168C74.9176 32.7313 76.1976 19.4299 72.2823 11.3516C79.1341 8.14807 85.1576 5.57136 93.0635 5.08387C99.4635 4.73567 109.252 6.54633 106.391 15.0425C117.609 8.7052 110.231 -3.41232 90.2776 0.905415C83.3506 2.43751 75.8965 5.36243 70.2494 7.73023C67.84 3.76069 63.6988 1.0447 58.9553 0.139365C54.5882 -0.696326 49.4682 0.348288 46.0047 2.99464C38.6259 8.56592 41.1106 18.3156 52.1035 17.6192C57.9765 17.271 64.6776 14.6943 69.8729 12.3265C71.0023 14.9032 71.4541 17.3407 71.68 19.8477C71.9812 23.1209 71.8306 25.3494 71.3788 27.5779ZM67.9906 8.84448C64.9035 10.1677 60.9129 12.048 56.9976 13.0229C54.5882 13.6497 52.1788 13.8586 50.0706 13.3711C46.9835 12.6747 46.08 10.4462 46.8329 8.28735C48.4894 4.03926 55.5671 2.71608 59.7835 3.41249C62.9459 3.96961 65.7318 5.71064 67.9906 8.84448ZM55.4165 32.8706C53.0071 32.3831 53.5341 27.16 54.9647 27.16C56.9223 27.0904 56.0188 31.6867 55.4165 32.8706ZM54.2118 35.0295C53.5341 36.6312 52.2541 38.4419 50.7482 39.1383C49.3176 39.765 48.0376 38.9294 48.3388 36.2134C48.5647 34.2634 49.3176 32.8706 50.2212 32.1742C50.4471 32.6617 50.6729 33.0099 50.9741 33.4277C51.8776 34.4027 53.0071 34.8902 54.2118 35.0295ZM19.5765 14.2765C12.8753 17.4103 5.49647 27.2297 4.89412 34.1241C4.59294 38.024 6.85176 35.7955 8.28235 34.1241C12.3482 29.4582 14.3059 26.0458 17.2424 19.7085C18.0706 17.9674 18.8235 16.2264 19.5765 14.2765Z" fill="black"/>
</g>
<defs>
<clipPath id="clip0_43_6">
<rect width="137.186" height="64" fill="white"/>
</clipPath>
</defs>
</svg>
